<mxfile host="app.diagrams.net" agent="Mozilla/5.0 (Macintosh; Intel Mac OS X 10_15_7) AppleWebKit/537.36 (KHTML, like Gecko) Chrome/133.0.0.0 Safari/537.36" version="26.0.16">
  <diagram name="第 1 页" id="HcRTTimAbUEUHV0r35dK">
    <mxGraphModel dx="516" dy="341" grid="1" gridSize="10" guides="1" tooltips="1" connect="1" arrows="1" fold="1" page="1" pageScale="1" pageWidth="827" pageHeight="1169" math="0" shadow="0">
      <root>
        <mxCell id="0" />
        <mxCell id="1" parent="0" />
        <mxCell id="nZi-JbzOEyZhrvatA6-u-1" value="" style="rounded=0;whiteSpace=wrap;html=1;fillColor=#dae8fc;strokeColor=#6c8ebf;fontFamily=Times New Roman;" parent="1" vertex="1">
          <mxGeometry x="120" y="40" width="40" height="100" as="geometry" />
        </mxCell>
        <mxCell id="nZi-JbzOEyZhrvatA6-u-2" value="" style="rounded=0;whiteSpace=wrap;html=1;fillColor=#b1ddf0;strokeColor=#10739e;fontFamily=Times New Roman;" parent="1" vertex="1">
          <mxGeometry x="200" y="20" width="40" height="140" as="geometry" />
        </mxCell>
        <mxCell id="nZi-JbzOEyZhrvatA6-u-3" value="" style="rounded=0;whiteSpace=wrap;html=1;fillColor=#d5e8d4;strokeColor=#82b366;fontFamily=Times New Roman;" parent="1" vertex="1">
          <mxGeometry x="280" y="55" width="40" height="70" as="geometry" />
        </mxCell>
        <mxCell id="nZi-JbzOEyZhrvatA6-u-18" style="rounded=0;orthogonalLoop=1;jettySize=auto;html=1;exitX=1;exitY=0.5;exitDx=0;exitDy=0;entryX=0;entryY=0.5;entryDx=0;entryDy=0;fontFamily=Times New Roman;endArrow=none;endFill=1;strokeWidth=0.8;startFill=0;" parent="1" source="nZi-JbzOEyZhrvatA6-u-4" target="nZi-JbzOEyZhrvatA6-u-7" edge="1">
          <mxGeometry relative="1" as="geometry" />
        </mxCell>
        <mxCell id="nZi-JbzOEyZhrvatA6-u-4" value="1" style="ellipse;whiteSpace=wrap;html=1;aspect=fixed;fontFamily=Times New Roman;" parent="1" vertex="1">
          <mxGeometry x="127.5" y="45" width="25" height="25" as="geometry" />
        </mxCell>
        <mxCell id="nZi-JbzOEyZhrvatA6-u-5" value="2" style="ellipse;whiteSpace=wrap;html=1;aspect=fixed;fontFamily=Times New Roman;" parent="1" vertex="1">
          <mxGeometry x="127.5" y="77.5" width="25" height="25" as="geometry" />
        </mxCell>
        <mxCell id="nZi-JbzOEyZhrvatA6-u-6" value="3" style="ellipse;whiteSpace=wrap;html=1;aspect=fixed;fontFamily=Times New Roman;" parent="1" vertex="1">
          <mxGeometry x="127.5" y="110" width="25" height="25" as="geometry" />
        </mxCell>
        <mxCell id="nZi-JbzOEyZhrvatA6-u-7" value="4" style="ellipse;whiteSpace=wrap;html=1;aspect=fixed;fontFamily=Times New Roman;" parent="1" vertex="1">
          <mxGeometry x="207.5" y="25" width="25" height="25" as="geometry" />
        </mxCell>
        <mxCell id="nZi-JbzOEyZhrvatA6-u-8" value="7" style="ellipse;whiteSpace=wrap;html=1;aspect=fixed;fontFamily=Times New Roman;" parent="1" vertex="1">
          <mxGeometry x="207.5" y="130" width="25" height="25" as="geometry" />
        </mxCell>
        <mxCell id="nZi-JbzOEyZhrvatA6-u-9" value="5" style="ellipse;whiteSpace=wrap;html=1;aspect=fixed;fontFamily=Times New Roman;" parent="1" vertex="1">
          <mxGeometry x="207.5" y="59" width="25" height="25" as="geometry" />
        </mxCell>
        <mxCell id="nZi-JbzOEyZhrvatA6-u-10" value="6" style="ellipse;whiteSpace=wrap;html=1;aspect=fixed;fontFamily=Times New Roman;" parent="1" vertex="1">
          <mxGeometry x="207.5" y="95" width="25" height="25" as="geometry" />
        </mxCell>
        <mxCell id="nZi-JbzOEyZhrvatA6-u-13" value="9" style="ellipse;whiteSpace=wrap;html=1;aspect=fixed;fontFamily=Times New Roman;" parent="1" vertex="1">
          <mxGeometry x="287.5" y="95" width="25" height="25" as="geometry" />
        </mxCell>
        <mxCell id="nZi-JbzOEyZhrvatA6-u-14" value="8" style="ellipse;whiteSpace=wrap;html=1;aspect=fixed;fontFamily=Times New Roman;" parent="1" vertex="1">
          <mxGeometry x="287.5" y="59" width="25" height="25" as="geometry" />
        </mxCell>
        <mxCell id="nZi-JbzOEyZhrvatA6-u-15" value="" style="endArrow=classicThin;html=1;rounded=0;fontFamily=Times New Roman;strokeWidth=0.8;endFill=1;" parent="1" edge="1">
          <mxGeometry width="50" height="50" relative="1" as="geometry">
            <mxPoint x="70" y="57" as="sourcePoint" />
            <mxPoint x="127.5" y="57.25" as="targetPoint" />
          </mxGeometry>
        </mxCell>
        <mxCell id="nZi-JbzOEyZhrvatA6-u-16" value="" style="endArrow=classicThin;html=1;rounded=0;fontFamily=Times New Roman;strokeWidth=0.8;endFill=1;" parent="1" edge="1">
          <mxGeometry width="50" height="50" relative="1" as="geometry">
            <mxPoint x="70" y="122" as="sourcePoint" />
            <mxPoint x="127.5" y="122.25" as="targetPoint" />
          </mxGeometry>
        </mxCell>
        <mxCell id="nZi-JbzOEyZhrvatA6-u-17" value="" style="endArrow=classicThin;html=1;rounded=0;fontFamily=Times New Roman;strokeWidth=0.8;endFill=1;" parent="1" edge="1">
          <mxGeometry width="50" height="50" relative="1" as="geometry">
            <mxPoint x="70" y="90" as="sourcePoint" />
            <mxPoint x="127.5" y="89.75" as="targetPoint" />
          </mxGeometry>
        </mxCell>
        <mxCell id="nZi-JbzOEyZhrvatA6-u-20" style="rounded=0;orthogonalLoop=1;jettySize=auto;html=1;exitX=1;exitY=0.5;exitDx=0;exitDy=0;entryX=0;entryY=0.5;entryDx=0;entryDy=0;fontFamily=Times New Roman;endArrow=none;endFill=1;strokeWidth=0.8;startFill=0;" parent="1" source="nZi-JbzOEyZhrvatA6-u-4" target="nZi-JbzOEyZhrvatA6-u-8" edge="1">
          <mxGeometry relative="1" as="geometry">
            <mxPoint x="163" y="68" as="sourcePoint" />
            <mxPoint x="218" y="48" as="targetPoint" />
          </mxGeometry>
        </mxCell>
        <mxCell id="nZi-JbzOEyZhrvatA6-u-21" style="rounded=0;orthogonalLoop=1;jettySize=auto;html=1;exitX=1;exitY=0.5;exitDx=0;exitDy=0;entryX=0;entryY=0.5;entryDx=0;entryDy=0;fontFamily=Times New Roman;endArrow=none;endFill=1;strokeWidth=0.8;startFill=0;" parent="1" source="nZi-JbzOEyZhrvatA6-u-4" target="nZi-JbzOEyZhrvatA6-u-10" edge="1">
          <mxGeometry relative="1" as="geometry">
            <mxPoint x="173" y="78" as="sourcePoint" />
            <mxPoint x="228" y="58" as="targetPoint" />
          </mxGeometry>
        </mxCell>
        <mxCell id="nZi-JbzOEyZhrvatA6-u-22" style="rounded=0;orthogonalLoop=1;jettySize=auto;html=1;exitX=1;exitY=0.5;exitDx=0;exitDy=0;entryX=0;entryY=0.5;entryDx=0;entryDy=0;fontFamily=Times New Roman;endArrow=none;endFill=1;strokeWidth=0.8;startFill=0;" parent="1" source="nZi-JbzOEyZhrvatA6-u-4" target="nZi-JbzOEyZhrvatA6-u-9" edge="1">
          <mxGeometry relative="1" as="geometry">
            <mxPoint x="183" y="88" as="sourcePoint" />
            <mxPoint x="238" y="68" as="targetPoint" />
          </mxGeometry>
        </mxCell>
        <mxCell id="nZi-JbzOEyZhrvatA6-u-23" style="rounded=0;orthogonalLoop=1;jettySize=auto;html=1;exitX=1;exitY=0.5;exitDx=0;exitDy=0;entryX=0;entryY=0.5;entryDx=0;entryDy=0;fontFamily=Times New Roman;endArrow=none;endFill=1;strokeWidth=0.8;startFill=0;" parent="1" source="nZi-JbzOEyZhrvatA6-u-5" target="nZi-JbzOEyZhrvatA6-u-8" edge="1">
          <mxGeometry relative="1" as="geometry">
            <mxPoint x="40" y="25" as="sourcePoint" />
            <mxPoint x="95" y="5" as="targetPoint" />
          </mxGeometry>
        </mxCell>
        <mxCell id="nZi-JbzOEyZhrvatA6-u-24" style="rounded=0;orthogonalLoop=1;jettySize=auto;html=1;exitX=1;exitY=0.5;exitDx=0;exitDy=0;entryX=0;entryY=0.5;entryDx=0;entryDy=0;fontFamily=Times New Roman;endArrow=none;endFill=1;strokeWidth=0.8;startFill=0;" parent="1" source="nZi-JbzOEyZhrvatA6-u-5" target="nZi-JbzOEyZhrvatA6-u-10" edge="1">
          <mxGeometry relative="1" as="geometry">
            <mxPoint x="50" y="35" as="sourcePoint" />
            <mxPoint x="105" y="15" as="targetPoint" />
          </mxGeometry>
        </mxCell>
        <mxCell id="nZi-JbzOEyZhrvatA6-u-25" style="rounded=0;orthogonalLoop=1;jettySize=auto;html=1;exitX=1;exitY=0.5;exitDx=0;exitDy=0;entryX=0;entryY=0.5;entryDx=0;entryDy=0;fontFamily=Times New Roman;endArrow=none;endFill=1;strokeWidth=0.8;startFill=0;" parent="1" source="nZi-JbzOEyZhrvatA6-u-5" target="nZi-JbzOEyZhrvatA6-u-9" edge="1">
          <mxGeometry relative="1" as="geometry">
            <mxPoint x="60" y="45" as="sourcePoint" />
            <mxPoint x="115" y="25" as="targetPoint" />
          </mxGeometry>
        </mxCell>
        <mxCell id="nZi-JbzOEyZhrvatA6-u-26" style="rounded=0;orthogonalLoop=1;jettySize=auto;html=1;exitX=1;exitY=0.5;exitDx=0;exitDy=0;entryX=0;entryY=0.5;entryDx=0;entryDy=0;fontFamily=Times New Roman;endArrow=none;endFill=1;strokeWidth=0.8;startFill=0;" parent="1" source="nZi-JbzOEyZhrvatA6-u-5" target="nZi-JbzOEyZhrvatA6-u-7" edge="1">
          <mxGeometry relative="1" as="geometry">
            <mxPoint x="70" y="55" as="sourcePoint" />
            <mxPoint x="125" y="35" as="targetPoint" />
          </mxGeometry>
        </mxCell>
        <mxCell id="nZi-JbzOEyZhrvatA6-u-27" style="rounded=0;orthogonalLoop=1;jettySize=auto;html=1;exitX=1;exitY=0.5;exitDx=0;exitDy=0;entryX=0;entryY=0.5;entryDx=0;entryDy=0;fontFamily=Times New Roman;endArrow=none;endFill=1;startFill=0;" parent="1" source="nZi-JbzOEyZhrvatA6-u-7" target="nZi-JbzOEyZhrvatA6-u-14" edge="1">
          <mxGeometry relative="1" as="geometry">
            <mxPoint x="60" y="10" as="sourcePoint" />
            <mxPoint x="115" y="-10" as="targetPoint" />
          </mxGeometry>
        </mxCell>
        <mxCell id="nZi-JbzOEyZhrvatA6-u-29" style="rounded=0;orthogonalLoop=1;jettySize=auto;html=1;exitX=1;exitY=0.5;exitDx=0;exitDy=0;entryX=0;entryY=0.5;entryDx=0;entryDy=0;fontFamily=Times New Roman;endArrow=none;endFill=1;startFill=0;" parent="1" source="nZi-JbzOEyZhrvatA6-u-9" target="nZi-JbzOEyZhrvatA6-u-14" edge="1">
          <mxGeometry relative="1" as="geometry">
            <mxPoint x="10" y="30" as="sourcePoint" />
            <mxPoint x="65" y="10" as="targetPoint" />
          </mxGeometry>
        </mxCell>
        <mxCell id="nZi-JbzOEyZhrvatA6-u-30" style="rounded=0;orthogonalLoop=1;jettySize=auto;html=1;exitX=1;exitY=0.5;exitDx=0;exitDy=0;entryX=0;entryY=0.5;entryDx=0;entryDy=0;fontFamily=Times New Roman;endArrow=none;endFill=1;startFill=0;" parent="1" source="nZi-JbzOEyZhrvatA6-u-10" target="nZi-JbzOEyZhrvatA6-u-14" edge="1">
          <mxGeometry relative="1" as="geometry">
            <mxPoint x="20" y="40" as="sourcePoint" />
            <mxPoint x="75" y="20" as="targetPoint" />
          </mxGeometry>
        </mxCell>
        <mxCell id="nZi-JbzOEyZhrvatA6-u-31" style="rounded=0;orthogonalLoop=1;jettySize=auto;html=1;exitX=1;exitY=0.5;exitDx=0;exitDy=0;entryX=0;entryY=0.5;entryDx=0;entryDy=0;fontFamily=Times New Roman;endArrow=none;endFill=1;startFill=0;" parent="1" source="nZi-JbzOEyZhrvatA6-u-8" target="nZi-JbzOEyZhrvatA6-u-14" edge="1">
          <mxGeometry relative="1" as="geometry">
            <mxPoint x="30" y="50" as="sourcePoint" />
            <mxPoint x="85" y="30" as="targetPoint" />
          </mxGeometry>
        </mxCell>
        <mxCell id="nZi-JbzOEyZhrvatA6-u-32" style="rounded=0;orthogonalLoop=1;jettySize=auto;html=1;exitX=1;exitY=0.5;exitDx=0;exitDy=0;entryX=0;entryY=0.5;entryDx=0;entryDy=0;fontFamily=Times New Roman;endArrow=none;endFill=1;strokeWidth=0.8;startFill=0;" parent="1" source="nZi-JbzOEyZhrvatA6-u-6" target="nZi-JbzOEyZhrvatA6-u-8" edge="1">
          <mxGeometry relative="1" as="geometry">
            <mxPoint x="70" y="20" as="sourcePoint" />
            <mxPoint x="125" as="targetPoint" />
          </mxGeometry>
        </mxCell>
        <mxCell id="nZi-JbzOEyZhrvatA6-u-33" style="rounded=0;orthogonalLoop=1;jettySize=auto;html=1;exitX=1;exitY=0.5;exitDx=0;exitDy=0;entryX=0;entryY=0.5;entryDx=0;entryDy=0;fontFamily=Times New Roman;endArrow=none;endFill=1;strokeWidth=0.8;startFill=0;" parent="1" source="nZi-JbzOEyZhrvatA6-u-6" target="nZi-JbzOEyZhrvatA6-u-10" edge="1">
          <mxGeometry relative="1" as="geometry">
            <mxPoint x="80" y="30" as="sourcePoint" />
            <mxPoint x="135" y="10" as="targetPoint" />
          </mxGeometry>
        </mxCell>
        <mxCell id="nZi-JbzOEyZhrvatA6-u-34" style="rounded=0;orthogonalLoop=1;jettySize=auto;html=1;exitX=1;exitY=0.5;exitDx=0;exitDy=0;entryX=0;entryY=0.5;entryDx=0;entryDy=0;fontFamily=Times New Roman;endArrow=none;endFill=1;strokeWidth=0.8;startFill=0;" parent="1" source="nZi-JbzOEyZhrvatA6-u-6" target="nZi-JbzOEyZhrvatA6-u-9" edge="1">
          <mxGeometry relative="1" as="geometry">
            <mxPoint x="90" y="40" as="sourcePoint" />
            <mxPoint x="145" y="20" as="targetPoint" />
          </mxGeometry>
        </mxCell>
        <mxCell id="nZi-JbzOEyZhrvatA6-u-35" style="rounded=0;orthogonalLoop=1;jettySize=auto;html=1;exitX=1;exitY=0.5;exitDx=0;exitDy=0;entryX=0;entryY=0.5;entryDx=0;entryDy=0;fontFamily=Times New Roman;endArrow=none;endFill=1;strokeWidth=0.8;startFill=0;" parent="1" source="nZi-JbzOEyZhrvatA6-u-6" target="nZi-JbzOEyZhrvatA6-u-7" edge="1">
          <mxGeometry relative="1" as="geometry">
            <mxPoint x="100" y="50" as="sourcePoint" />
            <mxPoint x="155" y="30" as="targetPoint" />
          </mxGeometry>
        </mxCell>
        <mxCell id="nZi-JbzOEyZhrvatA6-u-36" style="rounded=0;orthogonalLoop=1;jettySize=auto;html=1;exitX=1;exitY=0.5;exitDx=0;exitDy=0;entryX=0;entryY=0.5;entryDx=0;entryDy=0;fontFamily=Times New Roman;endArrow=none;endFill=1;startFill=0;" parent="1" source="nZi-JbzOEyZhrvatA6-u-8" target="nZi-JbzOEyZhrvatA6-u-13" edge="1">
          <mxGeometry relative="1" as="geometry">
            <mxPoint x="243" y="153" as="sourcePoint" />
            <mxPoint x="298" y="82" as="targetPoint" />
          </mxGeometry>
        </mxCell>
        <mxCell id="nZi-JbzOEyZhrvatA6-u-37" style="rounded=0;orthogonalLoop=1;jettySize=auto;html=1;exitX=1;exitY=0.5;exitDx=0;exitDy=0;entryX=0;entryY=0.5;entryDx=0;entryDy=0;fontFamily=Times New Roman;endArrow=none;endFill=1;startFill=0;" parent="1" source="nZi-JbzOEyZhrvatA6-u-10" target="nZi-JbzOEyZhrvatA6-u-13" edge="1">
          <mxGeometry relative="1" as="geometry">
            <mxPoint x="253" y="163" as="sourcePoint" />
            <mxPoint x="308" y="92" as="targetPoint" />
          </mxGeometry>
        </mxCell>
        <mxCell id="nZi-JbzOEyZhrvatA6-u-38" style="rounded=0;orthogonalLoop=1;jettySize=auto;html=1;exitX=1;exitY=0.5;exitDx=0;exitDy=0;entryX=0;entryY=0.5;entryDx=0;entryDy=0;fontFamily=Times New Roman;endArrow=none;endFill=1;startFill=0;" parent="1" source="nZi-JbzOEyZhrvatA6-u-9" target="nZi-JbzOEyZhrvatA6-u-13" edge="1">
          <mxGeometry relative="1" as="geometry">
            <mxPoint x="263" y="173" as="sourcePoint" />
            <mxPoint x="318" y="102" as="targetPoint" />
          </mxGeometry>
        </mxCell>
        <mxCell id="nZi-JbzOEyZhrvatA6-u-39" style="rounded=0;orthogonalLoop=1;jettySize=auto;html=1;entryX=0;entryY=0.5;entryDx=0;entryDy=0;exitX=1;exitY=0.5;exitDx=0;exitDy=0;fontFamily=Times New Roman;endArrow=none;endFill=1;startFill=0;" parent="1" source="nZi-JbzOEyZhrvatA6-u-7" target="nZi-JbzOEyZhrvatA6-u-13" edge="1">
          <mxGeometry relative="1" as="geometry">
            <mxPoint x="273" y="183" as="sourcePoint" />
            <mxPoint x="328" y="112" as="targetPoint" />
          </mxGeometry>
        </mxCell>
        <mxCell id="nZi-JbzOEyZhrvatA6-u-40" value="" style="endArrow=classic;html=1;rounded=0;fontFamily=Times New Roman;" parent="1" edge="1">
          <mxGeometry width="50" height="50" relative="1" as="geometry">
            <mxPoint x="312.5" y="71.22" as="sourcePoint" />
            <mxPoint x="350" y="71" as="targetPoint" />
          </mxGeometry>
        </mxCell>
        <mxCell id="nZi-JbzOEyZhrvatA6-u-41" value="" style="endArrow=classic;html=1;rounded=0;fontFamily=Times New Roman;" parent="1" edge="1">
          <mxGeometry width="50" height="50" relative="1" as="geometry">
            <mxPoint x="312.5" y="107.22" as="sourcePoint" />
            <mxPoint x="350" y="107" as="targetPoint" />
          </mxGeometry>
        </mxCell>
        <mxCell id="nZi-JbzOEyZhrvatA6-u-42" value="&lt;font&gt;input layer&lt;/font&gt;" style="text;html=1;align=center;verticalAlign=middle;resizable=0;points=[];autosize=1;labelBackgroundColor=default;fontColor=light-dark(#000000,#EDEDED);fontFamily=Times New Roman;" parent="1" vertex="1">
          <mxGeometry x="100" y="170" width="80" height="30" as="geometry" />
        </mxCell>
        <mxCell id="nZi-JbzOEyZhrvatA6-u-43" value="hidden layer" style="text;html=1;align=center;verticalAlign=middle;resizable=0;points=[];autosize=1;strokeColor=none;fillColor=none;fontColor=light-dark(#000000,#EDEDED);fontFamily=Times New Roman;" parent="1" vertex="1">
          <mxGeometry x="180" y="170" width="80" height="30" as="geometry" />
        </mxCell>
        <mxCell id="nZi-JbzOEyZhrvatA6-u-44" value="output layer" style="text;html=1;align=center;verticalAlign=middle;resizable=0;points=[];autosize=1;strokeColor=none;fillColor=none;fontColor=light-dark(#000000,#EDEDED);fontFamily=Times New Roman;" parent="1" vertex="1">
          <mxGeometry x="260" y="170" width="80" height="30" as="geometry" />
        </mxCell>
        <mxCell id="nZi-JbzOEyZhrvatA6-u-45" value="&lt;span style=&quot;font-size: 10px;&quot;&gt;x&lt;/span&gt;&lt;span style=&quot;font-size: 6.94444px;&quot;&gt;&lt;sub&gt;1&lt;/sub&gt;&lt;/span&gt;" style="text;html=1;align=center;verticalAlign=middle;resizable=0;points=[];autosize=1;strokeColor=none;fillColor=none;fontFamily=Times New Roman;" parent="1" vertex="1">
          <mxGeometry x="70" y="33" width="30" height="30" as="geometry" />
        </mxCell>
        <mxCell id="nZi-JbzOEyZhrvatA6-u-46" value="&lt;span style=&quot;font-size: 10px;&quot;&gt;x&lt;/span&gt;&lt;span style=&quot;font-size: 5.78703px;&quot;&gt;&lt;sub&gt;2&lt;/sub&gt;&lt;/span&gt;" style="text;html=1;align=center;verticalAlign=middle;resizable=0;points=[];autosize=1;strokeColor=none;fillColor=none;fontFamily=Times New Roman;" parent="1" vertex="1">
          <mxGeometry x="70" y="66" width="30" height="30" as="geometry" />
        </mxCell>
        <mxCell id="nZi-JbzOEyZhrvatA6-u-47" value="&lt;span style=&quot;font-size: 10px;&quot;&gt;x&lt;/span&gt;&lt;span style=&quot;font-size: 6.94444px;&quot;&gt;&lt;sub&gt;3&lt;/sub&gt;&lt;/span&gt;" style="text;html=1;align=center;verticalAlign=middle;resizable=0;points=[];autosize=1;strokeColor=none;fillColor=none;fontFamily=Times New Roman;" parent="1" vertex="1">
          <mxGeometry x="70" y="99" width="30" height="30" as="geometry" />
        </mxCell>
        <mxCell id="nZi-JbzOEyZhrvatA6-u-50" value="&lt;span style=&quot;font-size: 10px;&quot;&gt;y&lt;/span&gt;&lt;span style=&quot;font-size: 6.94444px;&quot;&gt;&lt;sub&gt;2&lt;/sub&gt;&lt;/span&gt;" style="text;html=1;align=center;verticalAlign=middle;resizable=0;points=[];autosize=1;strokeColor=none;fillColor=none;fontFamily=Times New Roman;" parent="1" vertex="1">
          <mxGeometry x="314.5" y="84" width="30" height="30" as="geometry" />
        </mxCell>
        <mxCell id="nZi-JbzOEyZhrvatA6-u-51" value="&lt;span style=&quot;font-size: 10px;&quot;&gt;y&lt;/span&gt;&lt;span style=&quot;font-size: 6.94444px;&quot;&gt;&lt;sub&gt;1&lt;/sub&gt;&lt;/span&gt;" style="text;html=1;align=center;verticalAlign=middle;resizable=0;points=[];autosize=1;strokeColor=none;fillColor=none;fontFamily=Times New Roman;" parent="1" vertex="1">
          <mxGeometry x="315.5" y="48" width="30" height="30" as="geometry" />
        </mxCell>
        <mxCell id="nZi-JbzOEyZhrvatA6-u-53" value="&lt;span&gt;w&lt;/span&gt;&lt;span&gt;&lt;sub&gt;14&lt;/sub&gt;&lt;/span&gt;" style="text;html=1;align=center;verticalAlign=middle;resizable=0;points=[];autosize=1;strokeColor=none;fillColor=none;fontSize=7;fontFamily=Times New Roman;" parent="1" vertex="1">
          <mxGeometry x="160" y="31.5" width="30" height="20" as="geometry" />
        </mxCell>
        <mxCell id="nZi-JbzOEyZhrvatA6-u-55" value="&lt;span&gt;w&lt;/span&gt;&lt;span&gt;&lt;sub&gt;24&lt;/sub&gt;&lt;/span&gt;" style="text;html=1;align=center;verticalAlign=middle;resizable=0;points=[];autosize=1;strokeColor=none;fillColor=none;fontSize=7;fontFamily=Times New Roman;" parent="1" vertex="1">
          <mxGeometry x="163" y="45" width="30" height="20" as="geometry" />
        </mxCell>
        <mxCell id="nZi-JbzOEyZhrvatA6-u-57" value="&lt;span&gt;w&lt;/span&gt;&lt;span&gt;&lt;sub&gt;34&lt;/sub&gt;&lt;/span&gt;" style="text;html=1;align=center;verticalAlign=middle;resizable=0;points=[];autosize=1;strokeColor=none;fillColor=none;fontSize=7;fontFamily=Times New Roman;" parent="1" vertex="1">
          <mxGeometry x="171" y="60" width="30" height="20" as="geometry" />
        </mxCell>
        <mxCell id="nZi-JbzOEyZhrvatA6-u-63" value="&lt;span&gt;a&lt;/span&gt;&lt;span&gt;&lt;sub&gt;4&lt;/sub&gt;&lt;/span&gt;" style="text;html=1;align=center;verticalAlign=middle;resizable=0;points=[];autosize=1;strokeColor=none;fillColor=none;fontSize=7;fontFamily=Times New Roman;" parent="1" vertex="1">
          <mxGeometry x="215" y="14.5" width="30" height="20" as="geometry" />
        </mxCell>
        <mxCell id="nZi-JbzOEyZhrvatA6-u-64" value="&lt;span&gt;a&lt;/span&gt;&lt;span&gt;&lt;sub&gt;5&lt;/sub&gt;&lt;/span&gt;" style="text;html=1;align=center;verticalAlign=middle;resizable=0;points=[];autosize=1;strokeColor=none;fillColor=none;fontSize=7;fontFamily=Times New Roman;" parent="1" vertex="1">
          <mxGeometry x="214" y="48" width="30" height="20" as="geometry" />
        </mxCell>
        <mxCell id="nZi-JbzOEyZhrvatA6-u-65" value="&lt;span&gt;a&lt;/span&gt;&lt;span&gt;&lt;sub&gt;6&lt;/sub&gt;&lt;/span&gt;" style="text;html=1;align=center;verticalAlign=middle;resizable=0;points=[];autosize=1;strokeColor=none;fillColor=none;fontSize=7;fontFamily=Times New Roman;" parent="1" vertex="1">
          <mxGeometry x="214" y="84" width="30" height="20" as="geometry" />
        </mxCell>
        <mxCell id="nZi-JbzOEyZhrvatA6-u-66" value="&lt;span&gt;a&lt;/span&gt;&lt;span&gt;&lt;sub&gt;7&lt;/sub&gt;&lt;/span&gt;" style="text;html=1;align=center;verticalAlign=middle;resizable=0;points=[];autosize=1;strokeColor=none;fillColor=none;fontSize=7;fontFamily=Times New Roman;" parent="1" vertex="1">
          <mxGeometry x="214" y="119" width="30" height="20" as="geometry" />
        </mxCell>
        <mxCell id="nZi-JbzOEyZhrvatA6-u-67" value="" style="endArrow=none;html=1;rounded=0;" parent="1" edge="1">
          <mxGeometry width="50" height="50" relative="1" as="geometry">
            <mxPoint x="370" y="193" as="sourcePoint" />
            <mxPoint x="370" y="14.5" as="targetPoint" />
          </mxGeometry>
        </mxCell>
        <mxCell id="nZi-JbzOEyZhrvatA6-u-68" value="" style="shape=cube;whiteSpace=wrap;html=1;boundedLbl=1;backgroundOutline=1;darkOpacity=0.05;darkOpacity2=0.1;size=47;rotation=90;aspect=fixed;fillColor=#f5f5f5;gradientColor=none;strokeColor=#666666;" parent="1" vertex="1">
          <mxGeometry x="360.46" y="55.45" width="103" height="55.11" as="geometry" />
        </mxCell>
        <mxCell id="nZi-JbzOEyZhrvatA6-u-71" value="" style="shape=cube;whiteSpace=wrap;html=1;boundedLbl=1;backgroundOutline=1;darkOpacity=0.05;darkOpacity2=0.1;size=23;rotation=90;fillColor=#dae8fc;gradientColor=none;strokeColor=#6c8ebf;" parent="1" vertex="1">
          <mxGeometry x="462" y="58.78" width="52.47" height="62.43" as="geometry" />
        </mxCell>
        <mxCell id="nZi-JbzOEyZhrvatA6-u-74" value="" style="shape=cube;whiteSpace=wrap;html=1;boundedLbl=1;backgroundOutline=1;darkOpacity=0.05;darkOpacity2=0.1;size=12;rotation=90;fillColor=#e1d5e7;strokeColor=#9673a6;" parent="1" vertex="1">
          <mxGeometry x="555.08" y="56.11" width="39.54" height="67.79" as="geometry" />
        </mxCell>
        <mxCell id="nZi-JbzOEyZhrvatA6-u-75" value="" style="shape=cube;whiteSpace=wrap;html=1;boundedLbl=1;backgroundOutline=1;darkOpacity=0.05;darkOpacity2=0.1;size=5;rotation=90;fillColor=#d5e8d4;strokeColor=#82b366;gradientColor=none;fontFamily=Times New Roman;" parent="1" vertex="1">
          <mxGeometry x="656" y="58.39" width="17.33" height="69.22" as="geometry" />
        </mxCell>
        <mxCell id="nZi-JbzOEyZhrvatA6-u-76" value="" style="endArrow=classic;html=1;rounded=0;targetPerimeterSpacing=0;" parent="1" edge="1">
          <mxGeometry width="50" height="50" relative="1" as="geometry">
            <mxPoint x="439" y="94.99999999999997" as="sourcePoint" />
            <mxPoint x="452" y="94.99999999999997" as="targetPoint" />
          </mxGeometry>
        </mxCell>
        <mxCell id="nZi-JbzOEyZhrvatA6-u-77" value="" style="endArrow=classic;html=1;rounded=0;targetPerimeterSpacing=0;" parent="1" edge="1">
          <mxGeometry width="50" height="50" relative="1" as="geometry">
            <mxPoint x="522" y="94.34999999999997" as="sourcePoint" />
            <mxPoint x="535" y="94.34999999999997" as="targetPoint" />
          </mxGeometry>
        </mxCell>
        <mxCell id="nZi-JbzOEyZhrvatA6-u-78" value="" style="endArrow=classic;html=1;rounded=0;targetPerimeterSpacing=0;fontFamily=Times New Roman;" parent="1" edge="1">
          <mxGeometry width="50" height="50" relative="1" as="geometry">
            <mxPoint x="613" y="93.67999999999996" as="sourcePoint" />
            <mxPoint x="626" y="93.67999999999996" as="targetPoint" />
          </mxGeometry>
        </mxCell>
        <mxCell id="nZi-JbzOEyZhrvatA6-u-79" value="depth" style="text;html=1;align=center;verticalAlign=middle;resizable=0;points=[];autosize=1;strokeColor=none;fillColor=none;fontFamily=Times New Roman;fontColor=#33FF33;" parent="1" vertex="1">
          <mxGeometry x="551" y="45" width="50" height="30" as="geometry" />
        </mxCell>
        <mxCell id="nZi-JbzOEyZhrvatA6-u-80" value="&lt;font style=&quot;color: rgb(0, 255, 255);&quot;&gt;height&lt;/font&gt;" style="text;html=1;align=center;verticalAlign=middle;resizable=0;points=[];autosize=1;strokeColor=none;fillColor=none;fontFamily=Times New Roman;" parent="1" vertex="1">
          <mxGeometry x="600" y="62" width="50" height="30" as="geometry" />
        </mxCell>
        <mxCell id="nZi-JbzOEyZhrvatA6-u-81" value="&lt;font style=&quot;color: rgb(255, 0, 0);&quot;&gt;&amp;nbsp;width&lt;/font&gt;" style="text;html=1;align=center;verticalAlign=middle;resizable=0;points=[];autosize=1;strokeColor=none;fillColor=none;fontFamily=Times New Roman;" parent="1" vertex="1">
          <mxGeometry x="587.62" y="94" width="50" height="30" as="geometry" />
        </mxCell>
        <mxCell id="nZi-JbzOEyZhrvatA6-u-82" value="" style="endArrow=none;rounded=0;exitX=0.026;exitY=0.832;exitDx=0;exitDy=0;exitPerimeter=0;entryX=0;entryY=0;entryDx=0;entryDy=0;entryPerimeter=0;fontColor=#33FF33;labelBackgroundColor=#33FF33;fillColor=#d5e8d4;gradientColor=#97d077;strokeColor=#33FF33;" parent="1" source="nZi-JbzOEyZhrvatA6-u-79" target="nZi-JbzOEyZhrvatA6-u-74" edge="1">
          <mxGeometry width="50" height="50" relative="1" as="geometry">
            <mxPoint x="520" y="230" as="sourcePoint" />
            <mxPoint x="580" y="71" as="targetPoint" />
          </mxGeometry>
        </mxCell>
        <mxCell id="nZi-JbzOEyZhrvatA6-u-83" value="" style="endArrow=none;html=1;rounded=0;entryX=0;entryY=0;entryDx=0;entryDy=0;entryPerimeter=0;exitX=0;exitY=0;exitDx=27.54;exitDy=0;exitPerimeter=0;strokeColor=#00FFFF;" parent="1" source="nZi-JbzOEyZhrvatA6-u-74" target="nZi-JbzOEyZhrvatA6-u-74" edge="1">
          <mxGeometry width="50" height="50" relative="1" as="geometry">
            <mxPoint x="620" y="80" as="sourcePoint" />
            <mxPoint x="619" y="80" as="targetPoint" />
          </mxGeometry>
        </mxCell>
        <mxCell id="nZi-JbzOEyZhrvatA6-u-84" value="" style="endArrow=none;html=1;rounded=0;entryX=0;entryY=0;entryDx=39.54;entryDy=12;entryPerimeter=0;exitX=0;exitY=0;exitDx=27.54;exitDy=0;exitPerimeter=0;strokeColor=#FF0000;" parent="1" source="nZi-JbzOEyZhrvatA6-u-74" target="nZi-JbzOEyZhrvatA6-u-74" edge="1">
          <mxGeometry width="50" height="50" relative="1" as="geometry">
            <mxPoint x="619" y="108" as="sourcePoint" />
            <mxPoint x="619" y="80" as="targetPoint" />
          </mxGeometry>
        </mxCell>
        <mxCell id="nZi-JbzOEyZhrvatA6-u-58" value="&lt;span&gt;w&lt;/span&gt;&lt;span&gt;&lt;sub&gt;48&lt;/sub&gt;&lt;/span&gt;" style="text;html=1;align=center;verticalAlign=middle;resizable=0;points=[];autosize=1;strokeColor=none;fillColor=none;fontSize=7;fontFamily=Times New Roman;" parent="1" vertex="1">
          <mxGeometry x="243" y="36" width="30" height="20" as="geometry" />
        </mxCell>
        <mxCell id="nZi-JbzOEyZhrvatA6-u-60" value="&lt;span&gt;w&lt;/span&gt;&lt;span&gt;&lt;sub&gt;58&lt;/sub&gt;&lt;/span&gt;" style="text;html=1;align=center;verticalAlign=middle;resizable=0;points=[];autosize=1;strokeColor=none;fillColor=none;fontSize=7;fontFamily=Times New Roman;" parent="1" vertex="1">
          <mxGeometry x="252.5" y="55" width="30" height="20" as="geometry" />
        </mxCell>
        <mxCell id="nZi-JbzOEyZhrvatA6-u-61" value="&lt;span&gt;w&lt;/span&gt;&lt;span&gt;&lt;sub&gt;68&lt;/sub&gt;&lt;/span&gt;" style="text;html=1;align=center;verticalAlign=middle;resizable=0;points=[];autosize=1;strokeColor=none;fillColor=none;fontSize=7;fontFamily=Times New Roman;" parent="1" vertex="1">
          <mxGeometry x="230.5" y="79" width="30" height="20" as="geometry" />
        </mxCell>
        <mxCell id="nZi-JbzOEyZhrvatA6-u-62" value="&lt;span&gt;w&lt;/span&gt;&lt;span&gt;&lt;sub&gt;78&lt;/sub&gt;&lt;/span&gt;" style="text;html=1;align=center;verticalAlign=middle;resizable=0;points=[];autosize=1;strokeColor=none;fillColor=none;fontSize=7;fontFamily=Times New Roman;" parent="1" vertex="1">
          <mxGeometry x="228" y="106" width="30" height="20" as="geometry" />
        </mxCell>
      </root>
    </mxGraphModel>
  </diagram>
</mxfile>
